<svg width="16" height="15" viewBox="0 0 16 15" fill="none" xmlns="http://www.w3.org/2000/svg">
<path d="M10.5 0C7.834 0 5 0.876 5 2.5V4.5C5 4.776 5.224 5 5.5 5C5.776 5 6 4.776 6 4.5V3.979C7.061 4.648 8.813 5 10.5 5C12.187 5 13.939 4.648 15 3.979V4.5C15 4.989 13.77 5.769 11.458 5.962C11.184 5.984 10.979 6.227 11.002 6.502C11.023 6.763 11.242 6.96 11.499 6.96C11.514 6.96 11.527 6.959 11.542 6.958C12.844 6.849 14.141 6.512 15 5.965V6.5C15 6.927 14.094 7.541 12.413 7.838C12.142 7.886 11.96 8.146 12.008 8.417C12.051 8.659 12.262 8.83 12.499 8.83C12.528 8.83 12.558 8.828 12.587 8.822C13.604 8.643 14.418 8.35 15 7.978V8.5C15 8.927 14.094 9.541 12.413 9.838C12.142 9.886 11.96 10.146 12.008 10.417C12.051 10.659 12.262 10.83 12.499 10.83C12.528 10.83 12.558 10.828 12.587 10.822C13.604 10.643 14.418 10.349 15 9.978V10.5C15 10.927 14.094 11.541 12.413 11.838C12.142 11.886 11.96 12.146 12.008 12.417C12.051 12.659 12.262 12.83 12.499 12.83C12.528 12.83 12.558 12.828 12.587 12.822C13.604 12.643 14.418 12.349 15 11.978V12.5C15 12.989 13.77 13.769 11.458 13.962C11.184 13.984 10.979 14.227 11.002 14.502C11.023 14.763 11.242 14.96 11.499 14.96C11.514 14.96 11.527 14.959 11.542 14.958C13.761 14.772 16 13.941 16 12.5V2.5C16 0.876 13.166 0 10.5 0ZM10.5 4C7.753 4 6 3.111 6 2.5C6 1.889 7.753 1 10.5 1C13.247 1 15 1.889 15 2.5C15 3.111 13.247 4 10.5 4Z" fill="white"/>
<path d="M5.5 6C2.834 6 0 6.876 0 8.5V12.5C0 14.124 2.834 15 5.5 15C8.166 15 11 14.124 11 12.5V8.5C11 6.876 8.166 6 5.5 6ZM10 12.5C10 13.111 8.247 14 5.5 14C2.753 14 1 13.111 1 12.5V11.979C2.061 12.648 3.813 13 5.5 13C7.187 13 8.939 12.648 10 11.979V12.5ZM10 10.5C10 11.111 8.247 12 5.5 12C2.753 12 1 11.111 1 10.5V9.979C2.061 10.648 3.813 11 5.5 11C7.187 11 8.939 10.648 10 9.979V10.5ZM5.5 10C2.753 10 1 9.111 1 8.5C1 7.889 2.753 7 5.5 7C8.247 7 10 7.889 10 8.5C10 9.111 8.247 10 5.5 10Z" fill="white"/>
</svg>
